<?xml version="1.0" standalone="no"?>
<!DOCTYPE svg PUBLIC "-//W3C//DTD SVG 20010904//EN"
 "http://www.w3.org/TR/2001/REC-SVG-20010904/DTD/svg10.dtd">
<svg version="1.0" xmlns="http://www.w3.org/2000/svg"
 width="382.000000pt" height="337.000000pt" viewBox="0 0 382.000000 337.000000"
 preserveAspectRatio="xMidYMid meet">

<g transform="translate(0.000000,337.000000) scale(0.100000,-0.100000)"
fill="#000000" stroke="none">
<path d="M2940 3360 c0 -5 -17 -12 -37 -16 -21 -4 -51 -13 -68 -20 -20 -8 -58
-11 -115 -7 -90 6 -119 0 -234 -51 -32 -14 -73 -26 -91 -26 -24 0 -40 -8 -57
-29 -14 -16 -46 -35 -75 -45 -58 -19 -74 -35 -139 -136 -45 -70 -127 -160
-146 -160 -4 0 -8 -12 -8 -27 -1 -16 -11 -41 -25 -57 -21 -26 -27 -28 -56 -20
-22 6 -39 21 -53 46 -12 20 -31 49 -44 63 -13 15 -25 40 -27 55 -5 40 -12 50
-38 50 -12 0 -40 20 -66 48 -26 27 -61 57 -78 67 -18 11 -33 22 -33 25 0 4
-20 17 -45 29 -39 19 -44 26 -39 47 7 28 -7 31 -49 9 -26 -13 -32 -13 -60 2
-39 20 -48 32 -41 59 8 30 -6 35 -43 17 -29 -13 -34 -13 -55 1 -16 11 -45 16
-100 16 -65 0 -79 3 -87 19 -17 31 -39 32 -117 6 -81 -27 -124 -31 -152 -14
-15 9 -26 6 -60 -15 -23 -14 -48 -26 -55 -26 -8 0 -39 -18 -69 -40 -54 -39
-56 -39 -73 -20 -23 26 -41 15 -95 -57 -52 -69 -63 -78 -115 -102 -52 -24 -67
-41 -109 -132 -28 -59 -45 -82 -76 -103 -38 -25 -57 -62 -25 -50 28 11 29 -26
1 -55 -27 -28 -35 -61 -15 -61 15 0 5 -75 -13 -97 -7 -9 -14 -32 -15 -52 -1
-20 -5 -60 -8 -89 -5 -32 -4 -62 3 -75 6 -12 15 -44 22 -71 11 -48 10 -50 -17
-72 -15 -13 -31 -23 -35 -24 -5 0 -8 -7 -8 -15 0 -10 10 -15 33 -15 42 0 67
-26 67 -70 0 -34 23 -123 46 -175 7 -16 20 -48 29 -70 24 -61 36 -79 87 -137
90 -102 140 -176 133 -198 -5 -17 -2 -20 22 -20 29 -1 68 -44 106 -115 8 -17
24 -39 34 -50 10 -11 38 -46 62 -77 26 -35 70 -75 110 -101 96 -64 102 -73 65
-102 -16 -14 -32 -24 -36 -25 -13 0 -9 -30 4 -30 7 0 36 10 64 21 81 34 112 5
57 -53 -37 -39 -21 -52 39 -30 44 16 48 15 67 -2 11 -10 29 -36 40 -58 26 -54
67 -97 140 -148 64 -45 76 -71 41 -90 -20 -11 -28 -40 -10 -40 5 0 21 5 35 12
24 11 29 9 46 -12 10 -14 19 -33 19 -42 0 -14 9 -18 38 -18 52 0 92 -20 92
-46 0 -17 5 -20 30 -16 26 4 33 -1 60 -44 16 -26 30 -54 30 -61 0 -7 11 -13
23 -13 13 0 32 -9 42 -20 10 -11 26 -22 36 -25 25 -8 24 -26 -1 -55 -30 -34
-10 -49 35 -27 50 24 68 22 120 -15 51 -36 53 -43 25 -60 -20 -13 -27 -38 -11
-38 6 0 25 9 44 20 28 17 36 18 52 6 17 -12 17 -14 0 -44 -23 -38 -14 -50 22
-31 16 7 32 15 37 17 4 3 5 -10 1 -28 -4 -18 -3 -30 1 -28 5 3 24 11 42 18 24
11 32 21 32 40 0 37 96 149 140 164 61 21 165 82 168 99 3 13 -4 17 -33 17
-37 0 -44 16 -14 30 8 4 32 17 54 29 22 12 60 31 84 43 24 12 62 40 85 64 22
23 65 55 94 71 29 15 61 33 70 38 19 11 106 80 133 105 32 30 79 121 79 153 1
34 28 66 103 121 30 22 36 31 27 41 -8 9 -8 20 -2 32 16 29 168 173 183 173 8
0 23 7 33 15 15 11 16 17 7 28 -18 22 -3 47 80 137 43 45 84 96 92 114 8 17
20 43 27 57 7 15 22 38 35 51 29 31 85 141 85 166 0 10 25 42 56 72 31 30 72
79 90 108 37 55 36 69 -3 114 -13 14 -13 25 3 90 9 40 26 83 37 96 l21 22 -21
19 c-18 17 -19 25 -11 73 10 58 11 142 3 168 -4 12 6 26 30 44 48 37 45 48
-12 44 l-47 -3 -26 50 c-14 28 -34 62 -44 78 -14 21 -17 40 -14 83 4 44 1 57
-12 64 -25 14 -72 86 -68 107 2 13 -3 18 -20 18 -14 0 -36 15 -55 38 -25 29
-46 41 -92 54 -35 10 -67 26 -78 39 -9 13 -33 28 -52 34 -38 12 -41 20 -24 52
16 29 5 33 -46 13 -46 -17 -62 -17 -140 4 -22 5 -52 12 -67 16 -23 4 -28 11
-28 35 0 17 -4 30 -10 30 -5 0 -10 -4 -10 -10z m-1940 -60 c0 -5 -9 -10 -20
-10 -11 0 -20 5 -20 10 0 6 9 10 20 10 11 0 20 -4 20 -10z m60 -50 c0 -5 -7
-10 -15 -10 -8 0 -15 5 -15 10 0 6 7 10 15 10 8 0 15 -4 15 -10z m1701 -4
c-17 -21 -69 -37 -77 -25 -3 6 -4 11 -3 13 16 10 57 25 73 25 15 1 16 -2 7
-13z m189 6 c0 -12 -50 -33 -61 -27 -23 15 -8 35 26 35 19 0 35 -4 35 -8z
m-420 -47 c-38 -21 -72 -33 -82 -29 -10 3 -16 10 -13 15 11 17 90 48 125 48
34 1 34 0 -30 -34z m530 25 c0 -5 -9 -10 -20 -10 -11 0 -20 5 -20 10 0 6 9 10
20 10 11 0 20 -4 20 -10z m-2330 -30 c0 -5 -17 -17 -37 -26 -21 -10 -41 -19
-45 -21 -5 -2 -8 2 -8 9 0 16 48 47 73 48 9 0 17 -4 17 -10z m150 2 c0 -9 -93
-52 -111 -52 -12 0 5 18 41 43 25 18 70 23 70 9z m168 -3 c-4 -11 -79 -41 -86
-34 -2 2 1 13 8 24 8 15 20 21 46 21 22 0 34 -4 32 -11z m2112 1 c0 -5 -4 -10
-10 -10 -5 0 -10 5 -10 10 0 6 5 10 10 10 6 0 10 -4 10 -10z m-326 -23 c-6
-16 -153 -91 -161 -83 -7 7 -10 4 49 45 70 47 123 65 112 38z m-1577 -17 c19
-11 30 -25 27 -33 -2 -7 -33 -22 -67 -32 -34 -10 -109 -40 -166 -67 -180 -84
-200 -77 -48 18 50 32 116 76 146 96 30 21 59 38 65 38 6 0 26 -9 43 -20z
m1693 11 c0 -8 -55 -39 -112 -63 -33 -14 -8 17 35 44 43 27 77 35 77 19z
m-360 -9 c0 -13 -160 -106 -168 -97 -9 9 63 72 103 90 35 15 65 19 65 7z m655
-12 c9 -15 -13 -40 -35 -40 -10 0 -23 7 -31 16 -10 13 -10 17 2 25 19 12 56
11 64 -1z m-1772 -14 c21 -16 22 -36 3 -36 -16 0 -46 26 -46 41 0 13 22 11 43
-5z m859 -38 c-11 -11 -26 -18 -33 -16 -9 3 -5 13 16 33 20 21 30 25 33 16 2
-7 -5 -22 -16 -33z m809 5 c12 -14 12 -17 -1 -21 -8 -3 -138 -67 -289 -144
-151 -76 -280 -138 -285 -138 -12 1 54 59 66 60 4 0 47 24 95 53 76 46 222
124 331 176 17 8 32 19 32 23 0 15 37 8 51 -9z m-1748 -28 c1 -5 -6 -11 -15
-13 -11 -2 -18 3 -18 13 0 17 30 18 33 0z m-689 -10 c-4 -8 -12 -15 -20 -15
-8 0 -14 -4 -14 -10 0 -5 -4 -10 -9 -10 -5 0 -45 -24 -88 -53 -116 -78 -203
-115 -203 -87 0 22 43 50 180 119 79 39 147 71 151 71 5 0 6 -7 3 -15z m2654
-4 c26 -23 29 -41 5 -41 -20 0 -53 28 -53 47 0 18 21 16 48 -6z m-1868 -36 c7
-9 11 -18 8 -21 -14 -13 -113 -43 -121 -35 -11 11 58 71 82 71 10 0 24 -7 31
-15z m1804 6 c3 -5 -7 -13 -22 -19 -75 -29 -94 -25 -39 8 35 22 53 25 61 11z
m-1954 -20 c0 -9 -24 -21 -43 -21 -6 0 -2 7 9 15 22 17 34 19 34 6z m1400 2
c0 -8 -15 -18 -110 -71 -55 -31 -224 -129 -265 -153 -64 -38 -251 -128 -280
-135 -16 -4 -35 -11 -42 -16 -7 -5 -14 -5 -17 1 -7 10 35 41 102 75 18 9 74
45 125 79 103 70 168 106 243 136 48 18 105 43 179 76 34 15 65 19 65 8z
m-2385 -32 c7 -12 -22 -41 -42 -41 -13 0 -12 5 7 25 27 28 27 28 35 16z m3207
-18 c27 -26 37 -53 20 -53 -12 0 -62 54 -62 68 0 18 11 14 42 -15z m-1952 7
c0 -5 -2 -10 -4 -10 -3 0 -8 5 -11 10 -3 6 -1 10 4 10 6 0 11 -4 11 -10z m-46
-31 c-8 -14 -24 -10 -24 6 0 9 6 12 15 9 8 -4 12 -10 9 -15z m130 -18 c3 -5 0
-14 -8 -20 -10 -8 -17 -6 -30 8 -22 25 -13 45 14 31 10 -6 21 -14 24 -19z
m1506 20 c0 -5 -35 -30 -77 -55 -43 -26 -85 -51 -93 -56 -36 -23 -264 -120
-282 -120 -54 0 132 103 412 228 32 14 40 14 40 3z m289 -26 c11 -19 16 -37
12 -39 -12 -8 -64 51 -57 63 12 19 23 12 45 -24z m-2559 17 c0 -4 -37 -27 -82
-51 -46 -25 -117 -65 -158 -91 -41 -26 -91 -54 -110 -62 -19 -9 -73 -34 -120
-56 -94 -43 -159 -66 -166 -60 -4 4 91 73 121 88 6 3 36 22 67 43 31 20 59 37
62 37 2 0 35 14 73 31 37 16 77 34 88 39 50 21 143 62 170 75 34 16 55 19 55
7z m-302 -45 c-43 -42 -292 -167 -305 -153 -9 9 19 28 122 82 50 26 110 58
134 71 43 23 72 23 49 0z m2809 -4 c5 -13 -37 -28 -58 -21 -17 6 20 40 39 36
8 -2 17 -8 19 -15z m-3106 -11 c-16 -30 -50 -55 -65 -49 -21 8 -10 34 23 52
37 20 54 19 42 -3z m1296 2 c5 -15 -156 -89 -167 -78 -6 6 15 23 55 44 36 19
65 38 65 43 0 12 43 4 47 -9z m488 -4 c7 -11 -38 -60 -54 -60 -23 0 -20 22 5
45 29 27 40 30 49 15z m-355 -30 c0 -5 -2 -10 -4 -10 -3 0 -8 5 -11 10 -3 6
-1 10 4 10 6 0 11 -4 11 -10z m1830 -20 c13 -24 -2 -27 -24 -4 -20 19 -20 24
-1 24 8 0 19 -9 25 -20z m-2466 -57 c-27 -22 -93 -47 -102 -39 -6 6 19 25 73
56 56 31 75 20 29 -17z m2396 33 c0 -8 -15 -16 -37 -19 -44 -8 -53 -2 -27 18
24 18 64 19 64 1z m-1810 -20 c0 -7 -9 -16 -20 -19 -23 -6 -26 3 -8 21 16 16
28 15 28 -2z m420 -31 c-13 -16 -40 -20 -40 -7 0 14 12 22 33 22 16 0 17 -3 7
-15z m563 0 c-21 -15 -93 -34 -83 -22 12 13 66 37 85 37 19 0 18 -1 -2 -15z
m-928 -24 c0 -7 -25 -23 -56 -35 -69 -29 -227 -108 -279 -141 -22 -14 -42 -25
-45 -25 -2 0 -34 -18 -70 -40 -36 -22 -67 -40 -69 -40 -2 0 -33 -17 -67 -38
-105 -62 -118 -67 -131 -54 -9 9 -8 12 5 12 9 0 17 5 17 10 0 6 5 10 11 10 6
0 31 14 56 30 24 17 46 30 47 30 2 0 51 29 110 65 58 36 108 65 111 65 4 0 31
16 62 36 168 108 298 158 298 115z m105 -12 c0 -6 -4 -7 -10 -4 -5 3 -10 11
-10 16 0 6 5 7 10 4 6 -3 10 -11 10 -16z m465 -9 c-10 -11 -22 -20 -28 -20 -5
0 -21 -8 -35 -19 -15 -10 -63 -37 -107 -61 -44 -24 -95 -52 -114 -62 -18 -11
-43 -18 -55 -16 -16 2 2 17 69 58 116 71 245 138 269 139 18 1 18 0 1 -19z
m695 12 c0 -8 -13 -17 -135 -87 -168 -97 -605 -323 -666 -344 -57 -20 -28 8
69 64 53 32 147 88 208 125 122 75 281 154 439 219 11 5 31 13 45 19 31 13 40
14 40 4z m-2220 -19 c0 -21 -350 -207 -377 -201 -30 7 140 111 277 171 90 39
100 42 100 30z m529 -6 c-6 -5 -168 -83 -209 -100 -19 -9 -48 -19 -65 -22
l-30 -7 23 17 c43 32 269 127 281 118 2 -2 2 -5 0 -6z m2269 1 c14 -14 16 -78
2 -78 -14 0 -30 35 -30 64 0 28 9 33 28 14z m-1608 -5 c0 -10 -32 -43 -42 -43
-12 0 -10 24 4 38 13 13 38 16 38 5z m742 -38 c-102 -64 -380 -191 -404 -183
-22 8 130 99 242 146 58 24 114 47 125 52 77 33 98 24 37 -15z m816 -2 c6 -20
9 -40 6 -44 -3 -5 -24 -13 -47 -19 -23 -6 -51 -15 -62 -19 -11 -5 -42 -17 -70
-26 -57 -19 -112 -41 -137 -55 -10 -6 -23 -10 -29 -10 -6 0 -25 -6 -42 -14
-91 -39 -107 -43 -107 -28 0 5 37 28 83 52 85 45 182 96 302 161 39 21 75 39
81 39 6 0 16 -16 22 -37z m-2980 5 c-5 -13 -118 -73 -158 -83 l-25 -7 25 19
c41 30 134 82 148 83 8 0 12 -5 10 -12z m-408 -13 c0 -8 -4 -15 -10 -15 -5 0
-10 7 -10 15 0 8 5 15 10 15 6 0 10 -7 10 -15z m1650 5 c0 -5 -7 -10 -15 -10
-8 0 -15 5 -15 10 0 6 7 10 15 10 8 0 15 -4 15 -10z m-817 -7 c15 -14 -228
-160 -423 -255 -113 -54 -227 -110 -253 -123 -62 -32 -90 -33 -85 -3 3 23 68
58 383 208 87 41 204 98 259 127 111 56 110 56 119 46z m867 -57 c0 -17 -27
-29 -35 -16 -4 6 -3 15 0 20 9 15 35 12 35 -4z m1204 -47 c-3 -6 -167 -90
-363 -186 -196 -96 -429 -211 -519 -256 -89 -44 -165 -77 -168 -74 -8 8 86 67
209 131 56 29 118 62 137 73 20 11 71 39 115 63 44 24 111 60 148 81 38 22 72
39 75 39 4 0 18 6 32 13 14 7 48 21 75 31 28 10 54 23 60 27 5 5 15 9 23 9 12
0 37 10 122 48 33 14 63 15 54 1z m-1994 -13 c-32 -31 -474 -246 -505 -246
-23 0 166 127 203 136 12 4 22 10 22 15 0 5 6 9 13 9 7 0 64 22 127 49 119 51
168 64 140 37z m-950 -63 c0 -81 -16 -75 -26 10 -6 49 -4 57 10 57 13 0 16
-12 16 -67z m3584 2 c-4 -8 -10 -12 -15 -9 -11 6 -12 48 -2 58 10 10 24 -31
17 -49z m-3504 4 c0 -14 -5 -19 -17 -17 -26 5 -29 38 -4 38 15 0 21 -6 21 -21z
m1800 -8 c0 -8 -33 -26 -270 -147 -63 -33 -117 -62 -120 -65 -12 -15 -161 -81
-167 -75 -7 7 45 55 60 56 4 0 44 23 88 50 69 43 174 96 339 173 39 18 70 21
70 8z m1608 -27 c-3 -23 -12 -30 -70 -49 -37 -12 -71 -24 -74 -28 -10 -10 -44
-9 -44 1 0 4 26 23 58 42 31 18 66 39 77 46 35 23 57 17 53 -12z m-410 -6 c-2
-7 -17 -20 -34 -28 -16 -8 -53 -30 -82 -48 -29 -17 -55 -32 -59 -32 -3 0 -33
-17 -67 -38 -59 -37 -180 -99 -221 -112 -55 -19 -196 -75 -243 -96 -29 -13
-58 -24 -66 -24 -7 0 -16 -3 -20 -7 -12 -12 -99 -43 -105 -37 -7 6 5 14 103
67 39 21 98 58 131 82 64 45 83 55 275 135 69 29 140 59 159 68 19 8 70 27
113 42 44 15 82 31 85 34 11 11 35 6 31 -6z m-2898 -33 c0 -8 -59 -35 -77 -35
-16 1 -15 3 6 20 20 18 71 28 71 15z m1288 -7 c7 -7 12 -15 12 -19 0 -4 -41
-31 -90 -60 -50 -30 -99 -59 -108 -64 -9 -6 -55 -33 -102 -61 -47 -28 -112
-63 -145 -78 -183 -84 -235 -106 -245 -106 -23 0 -6 18 53 54 103 65 229 141
277 168 137 76 170 95 225 128 87 53 103 58 123 38z m347 -43 c-16 -14 -34
-25 -40 -25 -5 0 -36 -14 -68 -31 -32 -16 -68 -29 -80 -27 -16 3 7 18 83 56
115 56 153 66 105 27z m1304 -7 c-52 -35 -329 -162 -336 -154 -11 10 174 108
307 163 28 12 49 5 29 -9z m461 -13 c0 -24 -5 -35 -15 -35 -10 0 -15 11 -15
35 0 24 5 35 15 35 10 0 15 -11 15 -35z m-90 -25 c0 -23 -34 -40 -81 -40 -41
0 -36 12 14 37 53 28 67 28 67 3z m-2890 1 c0 -5 -9 -11 -21 -14 -16 -4 -18
-3 -8 9 13 16 29 19 29 5z m-620 -28 c-1 -27 -1 -27 -15 -9 -14 19 -12 36 6
36 5 0 9 -12 9 -27z m771 -49 c-37 -26 -133 -74 -148 -74 -12 0 -12 2 -1 13
21 22 90 63 123 74 38 13 53 5 26 -13z m2819 6 c0 -5 -4 -10 -10 -10 -5 0 -10
5 -10 10 0 6 5 10 10 10 6 0 10 -4 10 -10z m-3510 -16 c0 -9 -5 -14 -12 -12
-18 6 -21 28 -4 28 9 0 16 -7 16 -16z m2940 -3 c0 -5 -19 -20 -42 -34 -46 -27
-115 -46 -104 -29 6 11 101 58 144 71 1 1 2 -3 2 -8z m-1130 -18 c-1 -12 -43
-40 -118 -80 -37 -20 -88 -49 -115 -64 -47 -29 -107 -39 -107 -18 0 5 37 27
82 47 46 20 119 56 163 78 85 45 95 48 95 37z m1324 -23 c-12 -12 -231 -120
-243 -120 -5 0 -11 -3 -13 -7 -6 -15 -159 -83 -185 -83 -16 0 -16 1 2 14 36
25 342 183 385 199 27 10 65 8 54 -3z m306 0 c0 -5 -4 -10 -10 -10 -5 0 -10 5
-10 10 0 6 5 10 10 10 6 0 10 -4 10 -10z m-3470 -73 c0 -12 -6 -17 -17 -15
-20 4 -28 30 -18 56 6 16 8 15 21 -2 8 -11 14 -28 14 -39z m63 47 c3 -3 3 -12
0 -19 -6 -17 -33 -8 -33 11 0 14 21 19 33 8z m285 -16 c-4 -10 -111 -81 -157
-104 -14 -8 -41 5 -44 20 -2 10 10 17 63 39 19 8 55 23 80 35 53 25 63 26 58
10z m3112 -40 c-1 -38 -23 -73 -40 -63 -8 5 -9 20 -5 44 8 44 12 51 31 51 9 0
14 -11 14 -32z m-2690 8 c0 -5 -111 -71 -150 -88 -19 -9 -57 -26 -83 -38 -47
-22 -80 -20 -42 3 136 82 275 144 275 123z m2612 -42 c-2 -16 -13 -37 -25 -47
-20 -18 -21 -18 -39 5 -24 31 -23 33 15 56 41 26 53 22 49 -14z m176 0 c2 -22
-8 -42 -43 -84 -25 -30 -50 -56 -55 -58 -17 -6 -11 28 17 86 45 96 75 116 81
56z m-3108 -4 c0 -5 -12 -16 -27 -24 -16 -8 -54 -37 -86 -65 -32 -28 -61 -51
-65 -51 -15 0 -52 32 -52 44 0 8 15 19 33 26 29 11 84 35 157 68 32 14 40 14
40 2z m-410 -66 c23 -49 25 -79 8 -90 -14 -9 -48 31 -48 57 0 10 -4 19 -10 19
-11 0 -14 53 -4 63 13 13 36 -7 54 -49z m1110 -2 c0 -7 -52 -40 -145 -92 -22
-13 -134 -71 -250 -130 -116 -59 -234 -120 -263 -135 -45 -24 -55 -26 -63 -14
-5 8 -9 17 -9 21 0 11 66 48 87 48 10 0 34 8 53 19 19 10 64 34 100 53 36 19
119 63 185 98 66 35 127 67 135 71 8 5 38 18 65 29 28 11 57 25 65 30 19 11
40 12 40 2z m1139 1 c0 -10 -229 -160 -294 -194 -27 -14 -90 -47 -139 -73
-193 -104 -366 -186 -391 -186 -14 0 -15 3 -5 15 7 8 18 15 26 15 7 0 19 6 26
13 8 6 23 17 33 23 11 6 47 26 80 44 33 18 65 36 70 40 6 5 30 19 55 32 25 13
106 60 180 103 135 79 324 173 348 174 6 1 12 -2 11 -6z m676 -12 c-11 -19
-65 -42 -88 -39 -17 2 -10 9 32 30 54 27 69 30 56 9z m261 -16 c-11 -8 -29
-15 -40 -15 -21 1 -21 1 -2 15 11 8 29 15 40 15 21 -1 21 -1 2 -15z m-1836 -2
c-1 -10 -124 -92 -349 -233 -92 -58 -207 -132 -256 -165 -50 -32 -108 -68
-130 -80 -22 -11 -43 -24 -47 -30 -8 -11 -70 44 -65 58 1 5 43 30 92 56 128
67 243 132 300 169 11 6 27 15 35 19 8 4 60 34 115 68 87 53 137 79 255 132
30 14 50 16 50 6z m-1192 -25 c17 -17 15 -38 -3 -38 -12 0 -35 28 -35 44 0 11
26 6 38 -6z m2858 -17 c-10 -15 -177 -125 -221 -145 -22 -10 -84 -40 -139 -67
-109 -54 -150 -64 -101 -24 17 14 33 25 37 25 4 0 32 15 61 34 152 97 383 210
363 177z m324 0 c0 -6 -4 -13 -10 -16 -5 -3 -10 1 -10 9 0 9 5 16 10 16 6 0
10 -4 10 -9z m-660 -8 c0 -10 -107 -78 -180 -116 -8 -4 -33 -18 -55 -30 -112
-64 -263 -132 -272 -124 -3 3 -2 10 1 16 10 16 137 95 186 117 25 10 101 47
170 81 122 60 150 71 150 56z m590 -28 c0 -10 -10 -15 -27 -15 -27 1 -27 1 -9
15 25 19 36 19 36 0z m-3065 -25 c-3 -5 -10 -10 -16 -10 -5 0 -9 5 -9 10 0 6
7 10 16 10 8 0 12 -4 9 -10z m1205 -11 c-33 -28 -115 -69 -137 -69 -15 0 -14
2 5 15 35 25 133 75 146 75 6 -1 0 -10 -14 -21z m-1313 -21 c11 -13 23 -29 27
-36 9 -14 -20 -52 -39 -52 -18 0 -63 52 -70 83 -7 25 -5 27 27 27 23 0 41 -7
55 -22z m2599 -23 c-37 -24 -81 -50 -97 -57 -16 -7 -29 -16 -29 -20 0 -5 -4
-8 -10 -8 -5 0 -71 -37 -147 -83 -144 -87 -211 -124 -278 -151 -22 -10 -48
-21 -57 -26 -10 -6 -22 -10 -28 -10 -14 0 -273 -129 -325 -161 -78 -49 -266
-140 -283 -137 -12 2 -7 9 18 24 19 12 107 65 195 119 88 54 194 116 235 138
41 22 102 54 135 72 33 18 101 54 150 80 101 54 215 111 290 144 28 13 95 44
150 71 132 64 177 67 81 5z m-2356 8 c0 -13 -43 -53 -57 -53 -23 0 -10 33 17
47 28 14 40 16 40 6z m1280 3 c0 -2 -37 -26 -82 -52 -46 -26 -119 -69 -163
-95 -44 -26 -123 -70 -177 -98 -53 -28 -120 -64 -150 -81 -79 -45 -334 -170
-347 -170 -37 0 40 53 174 120 39 19 72 37 75 40 3 3 21 13 40 24 76 40 146
80 170 96 14 10 57 34 95 54 39 20 99 52 135 72 116 65 179 93 208 94 12 0 22
-2 22 -4z m1600 -6 c0 -5 -6 -10 -14 -10 -8 0 -18 5 -21 10 -3 6 3 10 14 10
12 0 21 -4 21 -10z m120 -15 c0 -12 -41 -84 -56 -100 -16 -15 -18 -16 -26 0
-12 21 47 104 75 105 4 0 7 -2 7 -5z m-1229 -49 c-7 -8 -41 -29 -77 -46 -35
-18 -67 -36 -70 -41 -3 -5 -15 -9 -26 -9 -17 0 -13 5 18 28 64 45 156 94 162
87 3 -3 0 -11 -7 -19z m-1887 -2 c4 -10 1 -14 -6 -12 -15 5 -23 28 -10 28 5 0
13 -7 16 -16z m124 -16 c-7 -19 -38 -22 -38 -4 0 10 9 16 21 16 12 0 19 -5 17
-12z m2472 -6 c0 -18 -227 -135 -248 -127 -21 8 5 25 128 86 94 47 120 56 120
41z m-2560 -45 c0 -20 0 -20 -14 -2 -8 11 -12 23 -9 28 8 13 23 -3 23 -26z
m2840 26 c-2 -29 -136 -137 -200 -160 -30 -12 -80 -32 -110 -46 -30 -14 -102
-46 -160 -72 -146 -65 -225 -102 -294 -136 -33 -16 -62 -26 -65 -23 -7 7 40
43 57 44 6 0 12 4 12 8 0 4 15 15 33 23 52 25 202 104 207 109 3 3 28 17 55
31 49 26 131 71 210 115 151 85 256 129 255 107z m-2896 -28 c19 -29 21 -75 4
-75 -17 0 -68 64 -68 84 0 26 46 19 64 -9z m386 -13 c0 -10 -92 -62 -110 -62
-10 0 -10 3 0 15 7 8 19 15 26 15 8 0 14 4 14 8 0 5 12 13 28 19 35 14 42 15
42 5z m2622 -34 c-30 -31 -50 -11 -21 21 15 16 24 20 32 12 8 -8 5 -17 -11
-33z m-92 13 c0 -13 -29 -35 -37 -28 -7 8 15 37 28 37 5 0 9 -4 9 -9z m-1692
-12 c-2 -6 -21 -20 -43 -32 -22 -12 -47 -28 -55 -36 -8 -8 -28 -20 -45 -28
-16 -7 -37 -18 -45 -23 -44 -28 -151 -90 -155 -90 -3 0 -22 -11 -43 -23 -20
-13 -77 -45 -125 -71 -83 -44 -116 -54 -99 -31 9 13 79 65 86 65 4 0 41 22 84
48 115 72 414 232 434 232 5 0 8 -5 6 -11z m592 -3 c0 -11 -133 -96 -195 -125
-38 -18 -78 -37 -87 -42 -21 -11 -24 3 -5 19 17 15 270 152 279 152 5 0 8 -2
8 -4z m-1671 -30 c7 -9 8 -17 2 -20 -14 -9 -41 4 -41 20 0 18 24 18 39 0z
m2837 -64 c-16 -30 -92 -112 -104 -112 -5 0 -18 13 -29 28 -18 24 -19 30 -7
47 15 20 134 75 146 68 5 -2 2 -16 -6 -31z m-146 14 c0 -11 -19 -15 -25 -6 -3
5 1 10 9 10 9 0 16 -2 16 -4z m-2630 -20 c0 -8 -5 -18 -11 -22 -14 -8 -33 11
-25 25 10 16 36 13 36 -3z m54 -67 c30 -24 33 -34 10 -43 -21 -8 -54 20 -54
46 0 23 11 23 44 -3z m2476 -28 c0 -26 -153 -121 -195 -121 -6 0 -49 -18 -93
-40 -122 -59 -151 -62 -77 -8 88 65 132 91 210 122 39 15 81 34 95 42 28 15
60 18 60 5z m98 -19 c4 -25 -22 -72 -38 -72 -6 0 -15 11 -21 24 -9 20 -8 29 7
50 23 31 48 30 52 -2z m-2518 -27 c0 -21 -30 -31 -41 -14 -6 10 -2 16 14 21
12 3 23 6 25 7 1 1 2 -6 2 -14z m1589 -49 c-9 -9 -80 -56 -84 -56 -3 0 -28
-15 -57 -33 -48 -31 -372 -197 -383 -197 -3 0 -5 3 -5 8 0 6 11 14 95 62 17 9
75 43 130 75 145 84 266 145 289 145 10 0 17 -2 15 -4z m-1600 -68 c51 -59 27
-106 -26 -51 -49 51 -65 75 -59 88 8 22 49 4 85 -37z m91 23 c0 -26 -17 -36
-35 -21 -23 19 -18 40 10 40 18 0 25 -5 25 -19z m96 -98 c25 -29 30 -43 16
-43 -10 0 -62 53 -62 63 0 16 24 5 46 -20z m148 19 c7 -11 -73 -54 -85 -46 -5
3 -14 15 -20 26 -10 19 -9 21 18 15 16 -3 35 -2 43 4 19 11 37 12 44 1z m2055
-18 c-6 -7 -15 -11 -21 -8 -5 3 -4 12 3 20 6 7 15 11 21 8 5 -3 4 -12 -3 -20z
m-1540 12 c-8 -8 -202 -127 -228 -140 -14 -7 -37 -17 -51 -21 -23 -7 -24 -6
-10 10 34 41 235 155 273 155 11 0 18 -2 16 -4z m-747 -53 c15 -15 28 -31 28
-35 0 -14 -59 21 -70 42 -16 30 8 26 42 -7z m264 12 c-8 -8 -19 -15 -24 -15
-5 0 -15 -7 -22 -15 -14 -17 -30 -20 -30 -6 0 11 60 51 78 51 10 0 10 -3 -2
-15z m1947 -1 c8 -8 -47 -92 -89 -136 -31 -33 -74 -51 -74 -32 0 11 63 94 72
94 4 0 8 5 8 10 0 10 60 69 71 70 3 0 8 -3 12 -6z m-286 -51 c-9 -10 -38 -29
-64 -43 -26 -13 -61 -34 -78 -46 -31 -22 -117 -64 -133 -64 -9 0 -72 -32 -182
-92 -70 -39 -134 -60 -108 -36 19 17 59 40 268 151 218 115 282 147 297 147
15 0 15 -2 0 -17z m-1527 -48 c0 -8 -74 -55 -87 -55 -27 0 -11 26 25 42 38 16
62 22 62 13z m1650 -14 c0 -4 -12 -22 -27 -39 -23 -25 -34 -29 -60 -25 -47 8
-48 28 -2 43 22 8 42 17 45 22 7 11 44 10 44 -1z m-1065 -56 c-51 -43 -125
-85 -125 -72 1 14 118 94 140 95 9 1 2 -9 -15 -23z m443 -2 c-19 -16 -60 -41
-91 -57 -31 -17 -89 -58 -129 -93 -40 -35 -76 -63 -79 -63 -8 0 -231 -128
-305 -176 l-56 -36 -24 23 c-13 12 -21 26 -16 31 4 4 61 35 127 69 66 34 134
68 150 77 17 9 62 36 100 61 85 55 86 56 172 106 140 82 220 112 151 58z
m-924 9 c3 -5 -15 -25 -40 -46 -36 -31 -48 -35 -59 -26 -8 7 -15 16 -15 20 0
6 84 52 107 59 1 1 4 -3 7 -7z m-269 -36 c16 -12 17 -16 6 -30 -16 -20 -41 -4
-41 25 0 23 9 24 35 5z m1682 2 c18 -7 33 -15 33 -19 0 -4 -46 -30 -102 -59
-224 -114 -358 -180 -364 -180 -3 0 -20 -6 -37 -14 -18 -8 -54 -24 -82 -37
-27 -12 -83 -37 -123 -55 -68 -31 -134 -54 -122 -42 32 34 317 198 510 294
135 67 247 123 249 123 3 1 20 -4 38 -11z m-777 -57 c0 -18 -245 -157 -254
-143 -5 9 61 51 184 116 76 41 70 38 70 27z m-840 -16 c7 -9 10 -18 7 -21 -10
-10 -47 7 -47 22 0 19 24 18 40 -1z m67 -11 c-3 -3 -12 -4 -19 -1 -8 3 -5 6 6
6 11 1 17 -2 13 -5z m1703 -24 c0 -13 -56 -84 -96 -122 -55 -51 -154 -118
-176 -118 -25 0 -23 7 12 42 19 18 30 40 30 57 0 20 8 32 28 42 65 34 141 81
157 99 16 17 45 18 45 0z m-1760 -36 c0 -2 -7 -4 -15 -4 -8 0 -15 4 -15 10 0
5 7 7 15 4 8 -4 15 -8 15 -10z m208 -5 c-2 -6 -8 -10 -13 -10 -5 0 -11 4 -13
10 -2 6 4 11 13 11 9 0 15 -5 13 -11z m116 -1 c-27 -48 -74 -66 -74 -28 0 22
25 39 58 40 16 0 21 -4 16 -12z m216 -9 c-14 -12 -63 -45 -109 -75 -79 -52
-84 -54 -102 -38 -26 23 -24 33 9 44 31 12 41 16 132 59 77 35 107 40 70 10z
m-427 -41 c68 -54 40 -88 -31 -37 -70 50 -78 59 -61 70 19 12 47 2 92 -33z
m155 -117 c27 -24 28 -38 2 -46 -20 -6 -80 27 -80 44 0 27 46 28 78 2z m409
-71 c-14 -11 -28 -20 -31 -20 -4 0 -24 -11 -46 -25 -42 -26 -70 -32 -70 -15 0
12 136 80 159 80 8 0 3 -8 -12 -20z m-302 -14 c26 -23 27 -46 2 -46 -24 1 -60
37 -54 54 9 22 19 20 52 -8z m683 13 c-2 -6 -22 -21 -43 -34 -22 -12 -93 -54
-158 -94 -65 -39 -129 -71 -142 -71 -49 0 -24 29 63 72 48 25 127 65 176 91
91 48 110 55 104 36z m312 6 c0 -7 -43 -45 -52 -45 -15 0 -8 29 10 39 18 11
42 14 42 6z m-911 -104 c21 -14 5 -43 -21 -39 -29 4 -39 48 -11 48 10 0 24 -4
32 -9z m711 -39 c0 -13 -65 -45 -80 -40 -20 6 29 48 57 48 13 0 23 -4 23 -8z
m-510 -67 c7 -9 10 -19 6 -22 -8 -9 -38 9 -44 25 -5 17 23 15 38 -3z m-76 -29
c17 -14 24 -26 17 -30 -15 -10 -71 21 -71 39 0 21 21 18 54 -9z m300 -31 c-4
-8 -12 -15 -20 -15 -8 0 -14 7 -14 15 0 8 9 15 20 15 13 0 18 -5 14 -15z m46
-72 c0 -15 -44 -53 -61 -53 -25 0 -15 22 19 43 29 18 42 21 42 10z m-71 -82
c7 -5 10 -14 7 -20 -11 -17 -24 -13 -36 9 -12 22 3 27 29 11z"/>
</g>
</svg>
